<svg width="608" height="911" viewBox="0 0 608 911" fill="none" xmlns="http://www.w3.org/2000/svg">
<rect width="608" height="911" fill="#424CF9"/>
<path d="M0 759H76C117.974 759 152 793.026 152 835C152 876.974 117.974 911 76 911C34.0264 911 0 876.974 0 835V759Z" fill="#12006C"/>
<path d="M152 607H76C34.0264 607 0 572.974 0 531C0 489.026 34.0264 455 76 455C117.974 455 152 489.026 152 531V607Z" fill="#FEFFFF"/>
<path d="M608 456H532C490.026 456 456 421.974 456 380C456 338.026 490.026 304 532 304C573.974 304 608 338.026 608 380V456Z" fill="#FEFFFF"/>
<rect x="456" y="455" width="152" height="152" transform="rotate(180 456 455)" fill="#FEFFFF"/>
<path d="M304 304H152V152C235.947 152 304 220.053 304 304Z" fill="#FEFFFF"/>
<path d="M0 1H152V153C68.0527 153 0 84.9473 0 1Z" fill="#12006C"/>
<path d="M304 304H228C186.026 304 152 338.026 152 380C152 421.974 186.026 456 228 456C269.974 456 304 421.974 304 380V304Z" fill="#12006C"/>
<path d="M456 304H380C338.026 304 304 269.974 304 228C304 186.026 338.026 152 380 152C421.974 152 456 186.026 456 228V304Z" fill="#12006C"/>
<path d="M456 152H380C338.026 152 304 117.974 304 76C304 34.0264 338.026 0 380 0C421.974 0 456 34.0264 456 76V152Z" fill="#12006C"/>
<path d="M304 153H228C186.026 153 152 118.974 152 77C152 35.0264 186.026 1 228 1C269.974 1 304 35.0264 304 77V153Z" fill="#12006C"/>
<path d="M152 151H76C34.0264 151 0 185.026 0 227C0 268.974 34.0264 303 76 303C117.974 303 152 268.974 152 227V151Z" fill="#12006C"/>
<path d="M152 835C152 793.026 186.026 759 228 759C269.974 759 304 793.026 304 835H152Z" fill="#12006C"/>
<path d="M0 683C0 641.026 34.0264 607 76 607C117.974 607 152 641.026 152 683H0Z" fill="#FEFFFF"/>
<path d="M532 153C490.026 153 456 118.974 456 77C456 35.0264 490.026 1 532 1V153Z" fill="#FEFFFF"/>
<path d="M456 607C456 648.974 490.026 683 532 683C573.974 683 608 648.974 608 607H456Z" fill="#FEFFFF"/>
<path d="M0 304C0 345.974 34.0264 380 76 380C117.974 380 152 345.974 152 304H0Z" fill="#FEFFFF"/>
<path d="M608 608C566.026 608 532 573.974 532 532C532 490.026 566.026 456 608 456V608Z" fill="#12006C"/>
<path d="M608 305C566.026 305 532 270.974 532 229C532 187.026 566.026 153 608 153V305Z" fill="#12006C"/>
<path d="M304 835C304 793.026 338.026 759 380 759C421.974 759 456 793.026 456 835C456 876.974 421.974 911 380 911C338.026 911 304 876.974 304 835Z" fill="#FEFFFF"/>
<rect x="152" y="455" width="304" height="304" rx="152" fill="#12006C"/>
<path d="M456 759H608C608 842.947 539.947 911 456 911V759Z" fill="#FEFFFF"/>
<path d="M152 911C152 869.026 186.026 835 228 835C269.974 835 304 869.026 304 911H152Z" fill="#12006C"/>
<path d="M0 759C0 717.026 34.0264 683 76 683C117.974 683 152 717.026 152 759H0Z" fill="#FEFFFF"/>
<path d="M608 153C566.026 153 532 118.974 532 77C532 35.0264 566.026 1 608 1V153Z" fill="#FEFFFF"/>
</svg>
