<svg width="608" height="912" viewBox="0 0 608 912" fill="none" xmlns="http://www.w3.org/2000/svg">
<rect width="608" height="912" fill="#424CF9"/>
<path d="M0 760H76C117.974 760 152 794.026 152 836C152 877.974 117.974 912 76 912C34.0264 912 0 877.974 0 836V760Z" fill="#12006C"/>
<path d="M152 608H76C34.0264 608 0 573.974 0 532C0 490.026 34.0264 456 76 456C117.974 456 152 490.026 152 532V608Z" fill="#FEFFFF"/>
<path d="M608 456H532C490.026 456 456 421.974 456 380C456 338.026 490.026 304 532 304C573.974 304 608 338.026 608 380V456Z" fill="#FEFFFF"/>
<rect x="456" y="456" width="152" height="152" transform="rotate(180 456 456)" fill="#FEFFFF"/>
<path d="M304 304H152V152C235.947 152 304 220.053 304 304Z" fill="#FEFFFF"/>
<path d="M0 0H152V152C68.0527 152 0 83.9473 0 0Z" fill="#12006C"/>
<path d="M304 304H228C186.026 304 152 338.026 152 380C152 421.974 186.026 456 228 456C269.974 456 304 421.974 304 380V304Z" fill="#12006C"/>
<path d="M456 304H380C338.026 304 304 269.974 304 228C304 186.026 338.026 152 380 152C421.974 152 456 186.026 456 228V304Z" fill="#12006C"/>
<path d="M456 152H380C338.026 152 304 117.974 304 76C304 34.0264 338.026 0 380 0C421.974 0 456 34.0264 456 76V152Z" fill="#12006C"/>
<path d="M304 153H228C186.026 153 152 118.974 152 77C152 35.0264 186.026 1 228 1C269.974 1 304 35.0264 304 77V153Z" fill="#12006C"/>
<path d="M152 152H76C34.0264 152 0 186.026 0 228C0 269.974 34.0264 304 76 304C117.974 304 152 269.974 152 228V152Z" fill="#12006C"/>
<path d="M152 836C152 794.026 186.026 760 228 760C269.974 760 304 794.026 304 836H152Z" fill="#12006C"/>
<path d="M0 684C0 642.026 34.0264 608 76 608C117.974 608 152 642.026 152 684H0Z" fill="#FEFFFF"/>
<path d="M532 153C490.026 153 456 118.974 456 77C456 35.0264 490.026 1 532 1V153Z" fill="#FEFFFF"/>
<path d="M456 608C456 649.974 490.026 684 532 684C573.974 684 608 649.974 608 608H456Z" fill="#FEFFFF"/>
<path d="M0 304C0 345.974 34.0264 380 76 380C117.974 380 152 345.974 152 304H0Z" fill="#FEFFFF"/>
<path d="M608 608C566.026 608 532 573.974 532 532C532 490.026 566.026 456 608 456V608Z" fill="#12006C"/>
<path d="M608 305C566.026 305 532 270.974 532 229C532 187.026 566.026 153 608 153V305Z" fill="#12006C"/>
<path d="M304 836C304 794.026 338.026 760 380 760C421.974 760 456 794.026 456 836C456 877.974 421.974 912 380 912C338.026 912 304 877.974 304 836Z" fill="#FEFFFF"/>
<rect x="152" y="456" width="304" height="304" rx="152" fill="#12006C"/>
<path d="M456 760H608C608 843.947 539.947 912 456 912V760Z" fill="#FEFFFF"/>
<path d="M152 912C152 870.026 186.026 836 228 836C269.974 836 304 870.026 304 912H152Z" fill="#12006C"/>
<path d="M0 760C0 718.026 34.0264 684 76 684C117.974 684 152 718.026 152 760H0Z" fill="#FEFFFF"/>
<path d="M608 153C566.026 153 532 118.974 532 77C532 35.0264 566.026 1 608 1V153Z" fill="#FEFFFF"/>
</svg>
