<svg width="1440" height="288" viewBox="0 0 1440 288" fill="none" xmlns="http://www.w3.org/2000/svg">
<g clip-path="url(#clip0_18_844)">
<rect width="1440" height="80" />
<path d="M0 57.7267L21.92 72.9667C43.68 88.2067 87.52 118.687 131.2 120.38C174.88 122.073 218.72 94.98 262.08 85.6667C305.6 76.3533 348.8 84.82 392.32 89.0533C435.68 93.2867 479.52 93.2867 523.2 88.2067C566.88 83.1267 610.72 72.9667 654.4 70.4267C698.08 67.8867 741.92 72.9667 785.6 82.28C829.28 91.5933 873.12 105.14 916.8 111.067C960.48 116.993 1004.32 115.3 1047.68 111.913C1091.2 108.527 1134.4 103.447 1177.92 104.293C1221.28 105.14 1265.12 111.913 1308.8 102.6C1352.48 93.2867 1396.32 67.8867 1418.08 55.1867L1440 42.4867V10.3133L1418.08 19.6267C1396.32 28.94 1352.48 47.5667 1308.8 52.6467C1265.12 57.7267 1221.28 49.26 1177.92 51.8C1134.4 54.34 1091.2 67.8867 1047.68 70.4267C1004.32 72.9667 960.48 64.5 916.8 55.1867C873.12 45.8733 829.28 35.7133 785.6 29.7867C741.92 23.86 698.08 22.1667 654.4 28.94C610.72 35.7133 566.88 50.9533 523.2 56.0333C479.52 61.1133 435.68 56.0333 392.32 45.0267C348.8 34.02 305.6 17.0867 262.08 28.0933C218.72 39.1 174.88 78.0467 131.2 78.0467C87.52 78.0467 43.68 39.1 21.92 19.6267L0 0.15332V57.7267Z" fill="#2071FF"/>
<path d="M0 179.646L21.92 182.186C43.68 184.726 87.52 189.806 131.2 186.42C174.88 183.033 218.72 171.18 262.08 175.413C305.6 179.646 348.8 199.966 392.32 196.58C435.68 193.193 479.52 166.1 523.2 149.166C566.88 132.233 610.72 125.46 654.4 126.306C698.08 127.153 741.92 135.62 785.6 144.933C829.28 154.246 873.12 164.406 916.8 177.106C960.48 189.806 1004.32 205.046 1047.68 205.893C1091.2 206.74 1134.4 193.193 1177.92 195.733C1221.28 198.273 1265.12 216.9 1308.8 206.74C1352.48 196.58 1396.32 157.633 1418.08 138.16L1440 118.686V40.793L1418.08 53.493C1396.32 66.193 1352.48 91.593 1308.8 100.906C1265.12 110.22 1221.28 103.446 1177.92 102.6C1134.4 101.753 1091.2 106.833 1047.68 110.22C1004.32 113.606 960.48 115.3 916.8 109.373C873.12 103.446 829.28 89.8996 785.6 80.5863C741.92 71.273 698.08 66.193 654.4 68.733C610.72 71.273 566.88 81.433 523.2 86.513C479.52 91.593 435.68 91.593 392.32 87.3596C348.8 83.1263 305.6 74.6596 262.08 83.973C218.72 93.2863 174.88 120.38 131.2 118.686C87.52 116.993 43.68 86.513 21.92 71.273L0 56.033V179.646Z" fill="#0061F1"/>
<path d="M0 220.287L21.92 226.213C43.68 232.14 87.52 243.993 131.2 241.453C174.88 238.913 218.72 221.98 262.08 221.98C305.6 221.98 348.8 238.913 392.32 238.913C435.68 238.913 479.52 221.98 523.2 207.587C566.88 193.193 610.72 181.34 654.4 181.34C698.08 181.34 741.92 193.193 785.6 203.353C829.28 213.513 873.12 221.98 916.8 229.6C960.48 237.22 1004.32 243.993 1047.68 249.073C1091.2 254.153 1134.4 257.54 1177.92 267.7C1221.28 277.86 1265.12 294.793 1308.8 283.787C1352.48 272.78 1396.32 233.833 1418.08 214.36L1440 194.886V116.993L1418.08 136.466C1396.32 155.94 1352.48 194.886 1308.8 205.047C1265.12 215.207 1221.28 196.58 1177.92 194.04C1134.4 191.5 1091.2 205.047 1047.68 204.2C1004.32 203.353 960.48 188.113 916.8 175.413C873.12 162.713 829.28 152.553 785.6 143.24C741.92 133.926 698.08 125.46 654.4 124.613C610.72 123.766 566.88 130.54 523.2 147.473C479.52 164.406 435.68 191.5 392.32 194.886C348.8 198.273 305.6 177.953 262.08 173.72C218.72 169.486 174.88 181.34 131.2 184.726C87.52 188.113 43.68 183.033 21.92 180.493L0 177.953V220.287Z" fill="#0056D6"/>
<path d="M0 288H21.92C43.68 288 87.52 288 131.2 288C174.88 288 218.72 288 262.08 288C305.6 288 348.8 288 392.32 288C435.68 288 479.52 288 523.2 288C566.88 288 610.72 288 654.4 288C698.08 288 741.92 288 785.6 288C829.28 288 873.12 288 916.8 288C960.48 288 1004.32 288 1047.68 288C1091.2 288 1134.4 288 1177.92 288C1221.28 288 1265.12 288 1308.8 288C1352.48 288 1396.32 288 1418.08 288H1440V193.193L1418.08 212.666C1396.32 232.14 1352.48 271.086 1308.8 282.093C1265.12 293.1 1221.28 276.166 1177.92 266.006C1134.4 255.846 1091.2 252.46 1047.68 247.38C1004.32 242.3 960.48 235.526 916.8 227.906C873.12 220.286 829.28 211.82 785.6 201.66C741.92 191.5 698.08 179.646 654.4 179.646C610.72 179.646 566.88 191.5 523.2 205.893C479.52 220.286 435.68 237.22 392.32 237.22C348.8 237.22 305.6 220.286 262.08 220.286C218.72 220.286 174.88 237.22 131.2 239.76C87.52 242.3 43.68 230.446 21.92 224.52L0 218.593V288Z" fill="#004CBB"/>
</g>
<defs>
<clipPath id="clip0_18_844">
<rect width="1440" height="288" fill="white"/>
</clipPath>
</defs>
</svg>
